<svg width="20" height="16" viewBox="0 0 20.1626 16.1301" fill="none" xmlns="http://www.w3.org/2000/svg">
<path id="Subtract" d="M15.1219 3.02439H18.1463C18.6811 3.02439 19.1938 3.23697 19.5719 3.61509C19.95 3.99321 20.1626 4.5059 20.1626 5.04065V14.1138C20.1626 14.6486 19.95 15.1613 19.5719 15.5394C19.1938 15.9175 18.6811 16.1301 18.1463 16.1301H2.01626C1.48151 16.1301 0.968823 15.9175 0.590701 15.5394C0.212579 15.1613 0 14.6486 0 14.1138V5.04065C0 4.5059 0.212579 3.99321 0.590701 3.61509C0.968823 3.23697 1.48151 3.02439 2.01626 3.02439H5.04065L7.56097 0H12.6016L15.1219 3.02439ZM10.0813 6.04878C8.41098 6.04878 7.05691 7.40285 7.05691 9.07317C7.05691 10.7435 8.41098 12.0976 10.0813 12.0976C11.7516 12.0976 13.1057 10.7435 13.1057 9.07317C13.1057 7.40285 11.7516 6.04878 10.0813 6.04878Z" fill="#82807F"/>
</svg>
